<svg width="43" height="43" viewBox="0 0 43 43" fill="none" xmlns="http://www.w3.org/2000/svg">
<circle cx="21.5" cy="21.5" r="21.5" fill="#5FA494"/>
<g clip-path="url(#clip0_2151_101)">
<path d="M21.7361 27.415C22.4079 27.415 22.9531 27.9602 22.9531 28.632C22.9531 29.3038 22.4079 29.849 21.7361 29.849C21.0643 29.849 20.5191 29.3038 20.5191 28.632C20.5191 27.9602 21.0643 27.415 21.7361 27.415ZM21.7361 13.6226C24.4248 13.6226 26.604 15.8018 26.604 18.4905C26.604 20.247 25.9931 21.1597 24.4345 22.4846C22.8711 23.8127 22.5474 24.4107 22.5474 25.7924H20.9248C20.9248 23.7852 21.5633 22.7945 23.3839 21.2482C24.6147 20.2024 24.9814 19.6539 24.9814 18.4905C24.9814 16.6975 23.5291 15.2452 21.7361 15.2452C19.9431 15.2452 18.4908 16.6975 18.4908 18.4905V19.3018H16.8682V18.4905C16.8682 15.8018 19.0474 13.6226 21.7361 13.6226Z" fill="white"/>
</g>
<defs>
<clipPath id="clip0_2151_101">
<rect width="19.4717" height="19.4717" fill="white" transform="translate(12 12)"/>
</clipPath>
</defs>
</svg>
