<svg width="45" height="43" viewBox="0 0 45 43" fill="none" xmlns="http://www.w3.org/2000/svg">
<g filter="url(#filter0_d_483_190)">
<path d="M22.5005 32.1713C24.2099 32.1713 25.828 30.6154 27.0618 28.1005C28.4155 25.341 29.253 21.4973 29.253 17.2242C29.253 12.9512 28.4156 9.10765 27.0618 6.34799C25.828 3.8331 24.2101 2.27716 22.5005 2.27716C20.7908 2.27716 19.1728 3.8331 17.939 6.34799C16.5853 9.10765 15.7479 12.9512 15.7479 17.2242C15.7479 21.4973 16.5854 25.341 17.939 28.1005C19.1728 30.6154 20.791 32.1713 22.5005 32.1713ZM29.0988 29.0965C27.4769 32.403 25.1488 34.4485 22.5005 34.4485C19.852 34.4485 17.5241 32.403 15.902 29.0965C14.4 26.0345 13.4707 21.8349 13.4707 17.2242C13.4707 12.6135 14.3998 8.41397 15.902 5.35193C17.5241 2.04546 19.8518 0 22.5005 0C25.149 0 27.4769 2.04546 29.0988 5.35193C30.6011 8.41397 31.5302 12.6135 31.5302 17.2242C31.5302 21.8349 30.6009 26.0345 29.0988 29.0965Z" fill="#E6BE80"/>
<path d="M6.76872 4.62226C8.99962 3.18929 12.0627 3.64992 15.2104 5.55308C18.124 7.31462 21.1747 10.3478 23.6711 14.2345C26.167 18.1205 27.6567 22.1561 28.0469 25.5385C28.4686 29.1928 27.6134 32.1701 25.3822 33.6032C23.1512 35.0362 20.0885 34.5757 16.9406 32.6727C14.0272 30.9113 10.9766 27.8782 8.48011 23.9917L8.45968 23.9598C5.97564 20.0824 4.493 16.06 4.10399 12.687C3.68236 9.03269 4.53741 6.0554 6.76872 4.62226ZM14.0364 7.50107C11.6351 6.04929 9.43176 5.6124 7.99609 6.53449C6.56058 7.45666 6.04173 9.64179 6.36328 12.4292C6.71601 15.4883 8.08712 19.1751 10.3921 22.7637L10.4037 22.7817C12.7059 26.3608 15.4836 29.134 18.1146 30.7246C20.5158 32.1763 22.7192 32.6131 24.1548 31.691C25.5903 30.7688 26.1091 28.5837 25.7876 25.7963C25.4347 22.7373 24.0636 19.0504 21.7588 15.4619C19.4545 11.874 16.6718 9.0943 14.0364 7.50107Z" fill="#5FA494"/>
<path d="M37.0044 6.53436C35.5686 5.61228 33.3652 6.04917 30.9641 7.50078C28.3286 9.09409 25.5461 11.8738 23.2415 15.4618C20.9367 19.0504 19.5655 22.7373 19.2126 25.7962C18.8911 28.5835 19.41 30.7687 20.8455 31.6908C22.2812 32.6131 24.4847 32.1762 26.8858 30.7245C29.5212 29.1313 32.3039 26.3514 34.6084 22.7635C36.9134 19.1748 38.2845 15.4879 38.6373 12.429C38.9588 9.64167 38.4399 7.45654 37.0044 6.53436ZM29.7901 5.55303C32.9379 3.64996 36.0009 3.18934 38.2318 4.62213C40.4629 6.05527 41.3179 9.03239 40.8964 12.6868C40.506 16.0693 39.0167 20.105 36.5207 23.991C34.0243 27.8775 30.9733 30.9109 28.0598 32.6722C24.912 34.5754 21.8491 35.036 19.6182 33.6031C17.3869 32.1699 16.532 29.1926 16.9536 25.5384C17.344 22.1559 18.8335 18.1202 21.3293 14.2344C23.8257 10.3477 26.8766 7.31449 29.7901 5.55303Z" fill="#F08365"/>
</g>
<defs>
<filter id="filter0_d_483_190" x="0" y="0" width="45.0005" height="42.4485" filterUnits="userSpaceOnUse" color-interpolation-filters="sRGB">
<feFlood flood-opacity="0" result="BackgroundImageFix"/>
<feColorMatrix in="SourceAlpha" type="matrix" values="0 0 0 0 0 0 0 0 0 0 0 0 0 0 0 0 0 0 127 0" result="hardAlpha"/>
<feOffset dy="4"/>
<feGaussianBlur stdDeviation="2"/>
<feComposite in2="hardAlpha" operator="out"/>
<feColorMatrix type="matrix" values="0 0 0 0 0 0 0 0 0 0 0 0 0 0 0 0 0 0 0.25 0"/>
<feBlend mode="normal" in2="BackgroundImageFix" result="effect1_dropShadow_483_190"/>
<feBlend mode="normal" in="SourceGraphic" in2="effect1_dropShadow_483_190" result="shape"/>
</filter>
</defs>
</svg>
