<svg width="62" height="68" viewBox="0 0 62 68" fill="none" xmlns="http://www.w3.org/2000/svg">
<path fill-rule="evenodd" clip-rule="evenodd" d="M1.76954e-05 3.5771C-0.00166993 2.98416 0.117381 2.40007 0.346384 1.87773C0.575388 1.35539 0.907108 0.911286 1.31151 0.585655C1.71591 0.260024 2.18022 0.0631458 2.66238 0.0128487C3.14455 -0.0374485 3.62933 0.0604272 4.07283 0.297608L60.2545 30.4975C62.5818 31.7522 62.5818 35.7732 60.2545 37.0279L4.07283 67.2135C3.63023 67.4502 3.14651 67.5482 2.66529 67.4986C2.18407 67.449 1.7205 67.2533 1.31639 66.9294C0.912287 66.6054 0.58035 66.1632 0.350538 65.6428C0.120726 65.1224 0.000266438 64.54 1.76954e-05 63.9483V3.5771Z" fill="white"/>
</svg>
