<svg width="42" height="42" viewBox="0 0 42 42" fill="none" xmlns="http://www.w3.org/2000/svg">
<g clip-path="url(#clip0_154_3532)">
<path d="M21.1665 0.166504C26.8722 0.166504 27.5841 0.187504 29.8227 0.292504C32.0592 0.397504 33.5817 0.748204 34.9215 1.269C36.3075 1.8024 37.4751 2.5248 38.6427 3.6903C39.7105 4.74009 40.5368 6.00994 41.064 7.4115C41.5827 8.7492 41.9355 10.2738 42.0405 12.5103C42.1392 14.7489 42.1665 15.4608 42.1665 21.1665C42.1665 26.8722 42.1455 27.5841 42.0405 29.8227C41.9355 32.0592 41.5827 33.5817 41.064 34.9215C40.5383 36.3238 39.7119 37.594 38.6427 38.6427C37.5926 39.7102 36.3229 40.5364 34.9215 41.064C33.5838 41.5827 32.0592 41.9355 29.8227 42.0405C27.5841 42.1392 26.8722 42.1665 21.1665 42.1665C15.4608 42.1665 14.7489 42.1455 12.5103 42.0405C10.2738 41.9355 8.7513 41.5827 7.4115 41.064C6.00939 40.5379 4.73931 39.7115 3.6903 38.6427C2.62226 37.5931 1.79596 36.3232 1.269 34.9215C0.748204 33.5838 0.397504 32.0592 0.292504 29.8227C0.193804 27.5841 0.166504 26.8722 0.166504 21.1665C0.166504 15.4608 0.187504 14.7489 0.292504 12.5103C0.397504 10.2717 0.748204 8.7513 1.269 7.4115C1.7945 6.00908 2.62099 4.73888 3.6903 3.6903C4.73961 2.62189 6.0096 1.79554 7.4115 1.269C8.7513 0.748204 10.2717 0.397504 12.5103 0.292504C14.7489 0.193804 15.4608 0.166504 21.1665 0.166504ZM21.1665 10.6665C18.3817 10.6665 15.711 11.7728 13.7419 13.7419C11.7728 15.711 10.6665 18.3817 10.6665 21.1665C10.6665 23.9513 11.7728 26.622 13.7419 28.5911C15.711 30.5603 18.3817 31.6665 21.1665 31.6665C23.9513 31.6665 26.622 30.5603 28.5911 28.5911C30.5603 26.622 31.6665 23.9513 31.6665 21.1665C31.6665 18.3817 30.5603 15.711 28.5911 13.7419C26.622 11.7728 23.9513 10.6665 21.1665 10.6665V10.6665ZM34.8165 10.1415C34.8165 9.44531 34.5399 8.77763 34.0477 8.28535C33.5554 7.79307 32.8877 7.5165 32.1915 7.5165C31.4953 7.5165 30.8276 7.79307 30.3353 8.28535C29.8431 8.77763 29.5665 9.44531 29.5665 10.1415C29.5665 10.8377 29.8431 11.5054 30.3353 11.9977C30.8276 12.4899 31.4953 12.7665 32.1915 12.7665C32.8877 12.7665 33.5554 12.4899 34.0477 11.9977C34.5399 11.5054 34.8165 10.8377 34.8165 10.1415ZM21.1665 14.8665C22.8374 14.8665 24.4398 15.5303 25.6213 16.7117C26.8028 17.8932 27.4665 19.4956 27.4665 21.1665C27.4665 22.8374 26.8028 24.4398 25.6213 25.6213C24.4398 26.8028 22.8374 27.4665 21.1665 27.4665C19.4956 27.4665 17.8932 26.8028 16.7117 25.6213C15.5303 24.4398 14.8665 22.8374 14.8665 21.1665C14.8665 19.4956 15.5303 17.8932 16.7117 16.7117C17.8932 15.5303 19.4956 14.8665 21.1665 14.8665V14.8665Z" fill="#E0E0E0"/>
</g>
<defs>
<clipPath id="clip0_154_3532">
<rect width="42" height="42" fill="white"/>
</clipPath>
</defs>
</svg>
